<svg width="78" height="83" viewBox="0 0 78 83" fill="none" xmlns="http://www.w3.org/2000/svg">
<g filter="url(#filter0_d_2_48)">
<path d="M43.2169 41.327H35.9713C26.8428 41.327 25.9013 54.2877 26.7473 55.1175C29.026 57.1722 33.9792 58.6079 39.6691 58.6079C45.3591 58.6079 50.0394 57.2381 52.168 55.3151C53.0277 54.617 52.3318 41.327 43.2169 41.327ZM50.1758 53.392C48.4702 54.9067 44.3494 55.8551 39.6691 55.8551C34.9889 55.8551 30.8681 54.8936 29.1624 53.392C29.026 52.9837 29.8174 43.9349 36.1214 43.9349H43.367C49.6027 43.9218 50.3259 52.9705 50.1758 53.392Z" fill="#F8E8E8"/>
<path d="M39.5327 40.4972C43.79 40.4972 47.3513 37.2043 47.2012 33.0948C47.2012 28.9853 43.79 25.6925 39.5327 25.6925C35.2754 25.6925 31.8642 28.9853 31.8642 33.0948C31.8642 37.2043 35.2618 40.4972 39.5327 40.4972ZM39.5327 28.4321C42.3709 28.4321 44.4995 30.4869 44.4995 33.0948C44.4995 35.7028 42.2208 37.7575 39.5327 37.7575C36.8446 37.7575 34.5522 35.7028 34.5522 33.0948C34.5522 30.4869 36.831 28.4321 39.5327 28.4321Z" fill="#F8E8E8"/>
<path d="M61.5422 9.91304H16.5135C13.1022 9.91304 10.4005 12.521 10.4005 15.8139V27.8789H4.72414V30.6186H10.4005V40.7606H4.72414V43.5003H10.4005V53.6423H4.72414V56.382H10.4005V68.447C10.4005 71.7399 13.1022 74.3478 16.5135 74.3478H61.4057C64.817 74.3478 67.5187 71.7399 67.6552 68.447V15.8139C67.6552 12.521 64.9534 9.91304 61.5422 9.91304V9.91304ZM64.817 68.4734C64.817 70.1198 63.3979 71.6213 61.5558 71.6213H16.5271C14.8215 71.6213 13.2659 70.2515 13.2659 68.4734V56.4083H18.6694V53.6686H13.2523V43.5266H18.6557V40.7869H13.2523V30.6449H18.6557V27.9053H13.2523V15.8139C13.2523 14.1674 14.6714 12.6659 16.5135 12.6659H61.5422C63.2478 12.6659 64.8034 14.0357 64.8034 15.8139V68.4734H64.817Z" fill="#F8E8E8"/>
</g>
<defs>
<filter id="filter0_d_2_48" x="-1" y="0" width="83" height="84" filterUnits="userSpaceOnUse" color-interpolation-filters="sRGB">
<feFlood flood-opacity="0" result="BackgroundImageFix"/>
<feColorMatrix in="SourceAlpha" type="matrix" values="0 0 0 0 0 0 0 0 0 0 0 0 0 0 0 0 0 0 127 0" result="hardAlpha"/>
<feOffset dy="4"/>
<feGaussianBlur stdDeviation="2"/>
<feComposite in2="hardAlpha" operator="out"/>
<feColorMatrix type="matrix" values="0 0 0 0 0 0 0 0 0 0 0 0 0 0 0 0 0 0 0.25 0"/>
<feBlend mode="normal" in2="BackgroundImageFix" result="effect1_dropShadow_2_48"/>
<feBlend mode="normal" in="SourceGraphic" in2="effect1_dropShadow_2_48" result="shape"/>
</filter>
</defs>
</svg>
