<svg width="92" height="102" viewBox="0 0 92 102" fill="none" xmlns="http://www.w3.org/2000/svg">
<g clip-path="url(#clip0_2_4)">
<path d="M77.8201 46.6855V33.1888H90.6133C91.4092 33.1888 91.8839 34.1724 91.4424 34.9065L88.4174 39.9372L91.4424 44.9678C91.8839 45.702 91.4092 46.6855 90.6133 46.6855H77.8201V46.6855Z" fill="#FFB656"/>
<path d="M77.8201 68.9219V55.4252H90.6133C91.4092 55.4252 91.8839 56.4088 91.4424 57.1429L88.4174 62.1736L91.4424 67.2042C91.8839 67.9384 91.4092 68.9219 90.6133 68.9219H77.8201V68.9219Z" fill="#FFB656"/>
<path d="M77.8201 91.0478V77.5511H90.6133C91.4092 77.5511 91.8839 78.5346 91.4424 79.2688L88.4174 84.2994L91.4424 89.3301C91.8839 90.0642 91.4092 91.0478 90.6133 91.0478H77.8201V91.0478Z" fill="#FFB656"/>
<path d="M71.1705 6.63776H65.0837C69.0805 6.63776 72.3322 10.243 72.3322 14.674V47.4501H78.4189V14.674C78.4189 10.2428 75.1673 6.63776 71.1705 6.63776Z" fill="#D9CBBD"/>
<path d="M12.4622 102C5.80463 102 0.388489 95.9948 0.388489 88.6139V11.7149C4.19122 22.0894 12.5138 25.7809 22.5404 25.0022L22.5368 102H12.4622Z" fill="#FF6342"/>
<path d="M12.6406 26.7722C5.97046 26.7722 0.474717 20.8468 0.389545 13.5638C0.347139 9.95337 1.58321 6.55051 3.86937 3.98258C6.1559 1.41445 9.20771 0 12.4622 0H77.3213C79.0271 0 80.4146 1.53837 80.4146 3.42955C80.4146 5.32073 79.0269 6.8591 77.3213 6.8591H12.5867C9.35954 6.8591 6.66387 9.70474 6.57744 13.2026C6.53342 14.9824 7.12459 16.664 8.24243 17.9373C9.36044 19.2115 10.8592 19.9133 12.4622 19.9133H24.3363V26.7724H12.6406V26.7722Z" fill="#FE5022"/>
<path d="M12.7616 102V19.9133H70.3364C76.994 19.9133 82.4101 25.9185 82.4101 33.2994V88.6139C82.4101 95.9947 76.994 102 70.3364 102H12.7616V102Z" fill="#FF7856"/>
<path d="M70.3365 19.9133H64.1499C70.8075 19.9133 76.2236 25.9185 76.2236 33.2994V88.6139C76.2236 95.9947 70.8075 102 64.1499 102H70.3365C76.9941 102 82.4103 95.9947 82.4103 88.6139V33.2994C82.4103 25.9183 76.994 19.9133 70.3365 19.9133Z" fill="#FF6342"/>
<path d="M33.9126 93.1497C31.9335 93.1497 30.3234 91.3645 30.3234 89.1703V74.7821C30.3234 72.5879 31.9335 70.8027 33.9126 70.8027H66.8468C68.8259 70.8027 70.4361 72.5879 70.4361 74.7821V89.1703C70.4361 91.3645 68.8259 93.1497 66.8468 93.1497H33.9126V93.1497Z" fill="#ECE5DD"/>
<path d="M38.4059 79.2104H50.3799C51.2064 79.2104 51.8767 78.4677 51.8767 77.5509C51.8767 76.6343 51.2066 75.8914 50.3799 75.8914H38.4059C37.5793 75.8914 36.9091 76.6341 36.9091 77.5509C36.9091 78.4677 37.5793 79.2104 38.4059 79.2104Z" fill="#BABABA"/>
<path d="M62.3539 75.8916H56.3669C55.5403 75.8916 54.8701 76.6343 54.8701 77.5511C54.8701 78.4677 55.5401 79.2106 56.3669 79.2106H62.3539C63.1804 79.2106 63.8507 78.4679 63.8507 77.5511C63.8505 76.6343 63.1804 75.8916 62.3539 75.8916Z" fill="#BABABA"/>
<path d="M62.3539 84.7419H50.3799C49.5533 84.7419 48.8831 85.4846 48.8831 86.4014C48.8831 87.3182 49.5531 88.0609 50.3799 88.0609H62.3539C63.1804 88.0609 63.8507 87.3182 63.8507 86.4014C63.8507 85.4846 63.1804 84.7419 62.3539 84.7419Z" fill="#BABABA"/>
<path d="M44.3929 84.7419H38.4059C37.5793 84.7419 36.9091 85.4846 36.9091 86.4014C36.9091 87.3182 37.5791 88.0609 38.4059 88.0609H44.3929C45.2194 88.0609 45.8897 87.3182 45.8897 86.4014C45.8897 85.4846 45.2194 84.7419 44.3929 84.7419Z" fill="#BABABA"/>
<path d="M50.3804 62.3638C59.3477 62.3638 66.6172 54.3042 66.6172 44.3622C66.6172 34.4202 59.3477 26.3606 50.3804 26.3606C41.4131 26.3606 34.1437 34.4202 34.1437 44.3622C34.1437 54.3042 41.4131 62.3638 50.3804 62.3638Z" fill="#ECE5DD"/>
<path d="M62.9677 53.2103C60.2036 49.3481 56.2059 46.9706 51.8352 46.5369C55.5992 45.7745 58.4622 42.1144 58.4622 37.7243C58.4622 32.783 54.8365 28.7634 50.3799 28.7634C45.9233 28.7634 42.2975 32.7832 42.2975 37.7243C42.2975 42.1142 45.1605 45.7745 48.9246 46.5369C44.554 46.9706 40.5563 49.3481 37.792 53.2103L37.0048 54.3104L37.7919 55.4107C40.8668 59.7085 45.455 62.1734 50.3802 62.1734C55.3055 62.1734 59.8938 59.7083 62.9684 55.4107L63.7554 54.3104L62.9677 53.2103Z" fill="#FFB656"/>
</g>
<defs>
<clipPath id="clip0_2_4">
<rect width="92" height="102" fill="white"/>
</clipPath>
</defs>
</svg>
