<svg width="50" height="50" viewBox="0 0 50 50" fill="none" xmlns="http://www.w3.org/2000/svg">
<path d="M48.9708 42.5442C48.5882 42.5442 48.2279 42.3293 48.0511 41.9758C47.9919 41.8614 43.2787 33.1221 23.6099 32.8248V41.516C23.6099 41.9076 23.387 42.2651 23.036 42.4378C22.6855 42.6105 22.2678 42.5704 21.9556 42.3325L0.404152 25.8162C0.150157 25.6214 0 25.3201 0 25.0009C0 24.68 0.150157 24.3789 0.404152 24.1836L21.9567 7.66802C22.2693 7.42957 22.6865 7.38928 23.037 7.56117C23.388 7.73273 23.6109 8.09173 23.6109 8.48234V17.6416C24.1311 17.6085 24.8088 17.5797 25.6086 17.5797C32.9427 17.5797 50 19.9126 50 41.5138C50 41.9917 49.6716 42.4074 49.2057 42.5159C49.1273 42.5361 49.0501 42.5442 48.9708 42.5442Z" fill="#FF7856"/>
</svg>
