<svg width="189" height="187" viewBox="0 0 189 187" fill="none" xmlns="http://www.w3.org/2000/svg">
<path d="M124.031 93.5C116.442 93.5 109.103 90.1471 103.359 84.0623C97.7743 78.1273 94.3634 70.2127 93.7617 61.783C93.1194 52.791 95.8917 44.5221 101.565 38.4957C107.239 32.4693 115.172 29.2188 124.031 29.2188C132.828 29.2188 140.783 32.5278 146.438 38.5395C152.149 44.6097 154.928 52.864 154.286 61.7794C153.67 70.22 150.262 78.1309 144.688 84.0587C138.959 90.1471 131.624 93.5 124.031 93.5Z" fill="#FF7856"/>
<path d="M172.695 157.781H75.3711C73.8064 157.79 72.2606 157.443 70.8527 156.767C69.4447 156.091 68.2123 155.105 67.25 153.884C66.2294 152.561 65.5245 151.026 65.1883 149.395C64.852 147.763 64.8931 146.078 65.3084 144.465C68.4165 132.116 76.1168 121.875 87.5749 114.852C97.7447 108.621 110.691 105.188 124.031 105.188C137.634 105.188 150.24 108.475 160.469 114.702C171.953 121.689 179.664 131.988 182.758 144.487C183.168 146.101 183.205 147.786 182.865 149.417C182.524 151.047 181.817 152.581 180.794 153.902C179.833 155.118 178.603 156.099 177.199 156.771C175.795 157.444 174.255 157.789 172.695 157.781V157.781Z" fill="#FF7856"/>
<path d="M54.2637 94.9609C41.2736 94.9609 29.8524 83.0105 28.793 68.3244C28.2688 60.8006 30.6387 53.8429 35.4375 48.7405C40.1846 43.6893 46.8809 40.9062 54.2637 40.9062C61.6465 40.9062 68.291 43.7039 73.064 48.7844C77.8997 53.9269 80.2622 60.87 79.7085 68.3317C78.6491 83.0141 67.2316 94.9609 54.2637 94.9609Z" fill="#FF7856"/>
<path d="M78.5014 106.448C72.0083 103.307 63.5808 101.736 54.2674 101.736C43.3925 101.736 32.8314 104.541 24.5257 109.632C15.1089 115.414 8.77447 123.833 6.21633 133.997C5.84196 135.459 5.80656 136.986 6.11275 138.464C6.41895 139.941 7.05882 141.331 7.98451 142.529C8.86287 143.645 9.98815 144.546 11.2738 145.164C12.5595 145.782 13.9712 146.1 15.4005 146.094H56.3752C57.0667 146.094 57.7364 145.853 58.2673 145.415C58.7982 144.976 59.1567 144.367 59.2803 143.694C59.3209 143.464 59.3726 143.234 59.4316 143.008C62.562 130.568 69.8968 120.056 80.7347 112.394C81.1334 112.109 81.454 111.731 81.6676 111.293C81.8811 110.855 81.9809 110.372 81.9578 109.886C81.9347 109.4 81.7895 108.928 81.5353 108.512C81.2811 108.096 80.926 107.749 80.5022 107.503C79.9226 107.167 79.2582 106.813 78.5014 106.448Z" fill="#FF7856"/>
</svg>
