<svg width="65" height="69" viewBox="0 0 65 69" fill="none" xmlns="http://www.w3.org/2000/svg">
<g filter="url(#filter0_d_2_69)">
<path d="M31.555 6H31.445C28.4378 6 26 8.43781 26 11.445V55.555C26 58.5622 28.4378 61 31.445 61H31.555C34.5622 61 37 58.5622 37 55.555V11.445C37 8.43781 34.5622 6 31.555 6Z" fill="white"/>
<path d="M53.555 28H9.445C6.43781 28 4 30.4378 4 33.445V33.555C4 36.5622 6.43781 39 9.445 39H53.555C56.5622 39 59 36.5622 59 33.555V33.445C59 30.4378 56.5622 28 53.555 28Z" fill="white"/>
</g>
<defs>
<filter id="filter0_d_2_69" x="-4" y="0" width="73" height="73" filterUnits="userSpaceOnUse" color-interpolation-filters="sRGB">
<feFlood flood-opacity="0" result="BackgroundImageFix"/>
<feColorMatrix in="SourceAlpha" type="matrix" values="0 0 0 0 0 0 0 0 0 0 0 0 0 0 0 0 0 0 127 0" result="hardAlpha"/>
<feOffset dy="4"/>
<feGaussianBlur stdDeviation="2"/>
<feComposite in2="hardAlpha" operator="out"/>
<feColorMatrix type="matrix" values="0 0 0 0 0 0 0 0 0 0 0 0 0 0 0 0 0 0 0.25 0"/>
<feBlend mode="normal" in2="BackgroundImageFix" result="effect1_dropShadow_2_69"/>
<feBlend mode="normal" in="SourceGraphic" in2="effect1_dropShadow_2_69" result="shape"/>
</filter>
</defs>
</svg>
